<!--?xml version="1.0" standalone="no"?-->              <svg id="sw-js-blob-svg" viewBox="0 0 100 100" xmlns="http://www.w3.org/2000/svg">                    <defs>                         <linearGradient id="sw-gradient" x1="0" x2="1" y1="1" y2="0">                            <stop id="stop1" stop-color="rgba(0, 0, 0, 1)" offset="0%"></stop>                            <stop id="stop2" stop-color="rgba(86.776, 31, 251, 1)" offset="100%"></stop>                        </linearGradient>                    </defs>                <path fill="url(#sw-gradient)" d="M19.7,-33.4C26.2,-30.4,32.4,-26.4,35.6,-20.6C38.8,-14.9,39,-7.4,38.2,-0.4C37.5,6.5,35.7,13.1,33.1,19.9C30.5,26.6,27,33.7,21.3,37.7C15.7,41.7,7.8,42.7,0.7,41.4C-6.4,40.2,-12.8,36.7,-18.2,32.5C-23.6,28.4,-28.2,23.6,-32.5,18.1C-36.8,12.6,-40.9,6.3,-41.4,-0.3C-41.9,-6.9,-38.9,-13.8,-34.7,-19.6C-30.6,-25.3,-25.3,-30,-19.3,-33.1C-13.3,-36.3,-6.7,-38,0,-38C6.6,-38,13.3,-36.3,19.7,-33.4Z" width="100%" height="100%" transform="translate(50 50)" style="transition: all 0.3s ease 0s;" stroke-width="0"></path>              </svg>