<svg id="visual" viewBox="0 0 900 600" xmlns="http://www.w3.org/2000/svg" xmlns:xlink="http://www.w3.org/1999/xlink" version="1.1">
    <style>
        @keyframes wave {
            0% {
                fill: #9a077d;
                transform: translateY(0);
            }
            50% {
                fill: #810267;
                transform: translateY(20px);
            }
            100% {
                fill: #9a077d;
                transform: translateY(0);
            }
        }
    </style>
    <rect x="0" y="0" width="900" height="600" fill="#6200ee"></rect>
    <path d="M0 393L129 411L257 439L386 377L514 354L643 409L771 413L900 351L900 601L771 601L643 601L514 601L386 601L257 601L129 601L0 601Z" fill="#9a077d" style="animation: wave 3s ease infinite;"></path>
    <path d="M0 463L129 431L257 475L386 425L514 468L643 420L771 464L900 399L900 601L771 601L643 601L514 601L386 601L257 601L129 601L0 601Z" fill="#810267" style="animation: wave 3s ease infinite;"></path>
    <path d="M0 500L129 500L257 472L386 472L514 469L643 477L771 463L900 499L900 601L771 601L643 601L514 601L386 601L257 601L129 601L0 601Z" fill="#690052" style="animation: wave 3s ease infinite;"></path>
    <path d="M0 540L129 539L257 499L386 491L514 482L643 535L771 539L900 516L900 601L771 601L643 601L514 601L386 601L257 601L129 601L0 601Z" fill="#4c0038" style="animation: wave 3s ease infinite;"></path>
    <path d="M0 535L129 527L257 538L386 528L514 546L643 541L771 555L900 538L900 601L771 601L643 601L514 601L386 601L257 601L129 601L0 601Z" fill="#000000" style="animation: wave 3s ease infinite;"></path>
</svg>
